# xmcd CD database file
#
# Track frame offsets:
#	150
#	17352
#	23572
#	43452
#	54485
#	71517
#	86052
#	106822
#	117405
#	134760
#	148220
#	162765
#	174327
#	190780
#	208255
#	217730
#	230805
#	242275
#	252532
#	266257
#	276732
#	287737
#
# Disc length: 3953 seconds
#
# Revision: 0
# Processed by: cddbd v1.5.2PL0 Copyright (c) Steve Scherf et al.
# Submitted via: CDex 1.51
#
DISCID=4b0f6f16
DTITLE=Michael Levy - Michael Levy at Greenwich House
DYEAR=1990
DGENRE=Jazz
TTITLE0=When You Wish Upon a Star
TTITLE1=Noteoscopy
TTITLE2=Night in Tunisia
TTITLE3=Walking the Dog
TTITLE4=Don't Blame Me
TTITLE5=Intermittent Signal
TTITLE6=Mood for Love
TTITLE7=Conversation for One
TTITLE8=April in Paris
TTITLE9=Swingline
TTITLE10='Round Midnight
TTITLE11=Descent into the Mailroom
TTITLE12=You Go to My Head
TTITLE13=Waiting for the Note
TTITLE14=St. Louis Blues
TTITLE15=Out of Nowhere
TTITLE16=Definity
TTITLE17=Focus
TTITLE18=The Very Thought of You
TTITLE19=Linear Lulu
TTITLE20=In a Sentimental Mood
TTITLE21=Continuance
EXTD=YEAR: 1990
EXTT0=
EXTT1=
EXTT2=
EXTT3=
EXTT4=
EXTT5=
EXTT6=
EXTT7=
EXTT8=
EXTT9=
EXTT10=
EXTT11=
EXTT12=
EXTT13=
EXTT14=
EXTT15=
EXTT16=
EXTT17=
EXTT18=
EXTT19=
EXTT20=
EXTT21=
PLAYORDER=
